<svg width="104" height="38" viewBox="0 0 104 38" fill="none" xmlns="http://www.w3.org/2000/svg">
<g clip-path="url(#clip0_1_2)">
<rect width="104" height="38" fill="white"/>
<path d="M3.4 27.5V25.14L7.36 24.66V4.18L3.88 3.78V1.42H15.72L21.24 17.18L26.44 1.42H37.44V3.78L34.88 4.06C34.8533 5.68667 34.84 7.31333 34.84 8.94C34.84 10.5667 34.84 12.1933 34.84 13.82V15.1C34.84 16.7267 34.84 18.3667 34.84 20.02C34.84 21.6467 34.8533 23.26 34.88 24.86L37.64 25.14V27.5H24.12V25.14L26.84 24.82C26.8933 23.22 26.9067 21.6867 26.88 20.22C26.88 18.7267 26.8933 17.4067 26.92 16.26L27.04 8.1L20.52 27.5H17L10 7.94L10.16 16.02V24.62L13.48 25.14V27.5H3.4ZM54.4819 28.14C53.2285 28.14 52.2152 27.9 51.4419 27.42C50.6952 26.9133 50.1485 26.2067 49.8019 25.3C49.0285 26.1533 48.2419 26.8467 47.4419 27.38C46.6685 27.8867 45.5619 28.14 44.1219 28.14C42.5485 28.14 41.2819 27.6867 40.3219 26.78C39.3885 25.8733 38.9219 24.6067 38.9219 22.98C38.9219 21.94 39.1485 21.02 39.6019 20.22C40.0819 19.3933 40.9085 18.6467 42.0819 17.98C43.2819 17.2867 44.9619 16.66 47.1219 16.1C47.4419 16.02 47.8152 15.9267 48.2419 15.82C48.6685 15.6867 49.1085 15.5667 49.5619 15.46V14.02C49.5619 12.3133 49.3619 11.14 48.9619 10.5C48.5885 9.86 47.7752 9.54 46.5219 9.54C46.4152 9.54 46.3085 9.54 46.2019 9.54C46.1219 9.54 46.0285 9.54 45.9219 9.54V10.9C45.9219 12.5267 45.5885 13.6867 44.9219 14.38C44.2552 15.0467 43.4952 15.38 42.6419 15.38C41.0152 15.38 40.0019 14.66 39.6019 13.22C39.6019 11.4867 40.4152 10.0867 42.0419 9.02C43.6952 7.92667 46.1352 7.38 49.3619 7.38C52.1352 7.38 54.0819 7.99333 55.2019 9.22C56.3485 10.42 56.9219 12.3933 56.9219 15.14V24.3C56.9219 24.7533 57.1485 24.98 57.6019 24.98C57.7619 24.98 57.9219 24.9267 58.0819 24.82C58.2419 24.6867 58.4419 24.4467 58.6819 24.1L59.8419 24.74C59.3619 25.9667 58.6952 26.8467 57.8419 27.38C57.0152 27.8867 55.8952 28.14 54.4819 28.14ZM45.8019 21.74C45.8019 22.7267 46.0019 23.46 46.4019 23.94C46.8019 24.42 47.2952 24.66 47.8819 24.66C48.0685 24.66 48.2685 24.62 48.4819 24.54C48.7219 24.4333 49.0819 24.22 49.5619 23.9V17.34C49.1619 17.4467 48.7752 17.5933 48.4019 17.78C47.8419 18.0467 47.2685 18.5 46.6819 19.14C46.0952 19.78 45.8019 20.6467 45.8019 21.74ZM72.8222 9.9V8.02H80.2622V9.9L77.8622 10.3L70.3022 29.86C69.7422 31.3 69.1555 32.5267 68.5422 33.54C67.9289 34.58 67.1955 35.38 66.3422 35.94C65.4889 36.5 64.4089 36.78 63.1022 36.78C62.0089 36.78 61.0355 36.4733 60.1822 35.86C59.3555 35.2467 58.8889 34.5 58.7822 33.62C58.9689 32.6067 59.3955 31.86 60.0622 31.38C60.7289 30.9267 61.4889 30.7 62.3422 30.7C62.8755 30.7 63.4755 30.8067 64.1422 31.02C64.8355 31.26 65.4489 31.82 65.9822 32.7L66.2622 33.14C66.7155 32.6067 67.1422 32.0067 67.5422 31.34C67.9689 30.6733 68.3155 29.9667 68.5822 29.22L60.3022 10.22L58.5422 9.9V8.02H70.6622V9.86L68.3022 10.38L71.7822 20.02L75.1422 10.38L72.8222 9.9ZM95.81 28.14C94.5567 28.14 93.5433 27.9 92.77 27.42C92.0233 26.9133 91.4767 26.2067 91.13 25.3C90.3567 26.1533 89.57 26.8467 88.77 27.38C87.9967 27.8867 86.89 28.14 85.45 28.14C83.8767 28.14 82.61 27.6867 81.65 26.78C80.7167 25.8733 80.25 24.6067 80.25 22.98C80.25 21.94 80.4767 21.02 80.93 20.22C81.41 19.3933 82.2367 18.6467 83.41 17.98C84.61 17.2867 86.29 16.66 88.45 16.1C88.77 16.02 89.1433 15.9267 89.57 15.82C89.9967 15.6867 90.4367 15.5667 90.89 15.46V14.02C90.89 12.3133 90.69 11.14 90.29 10.5C89.9167 9.86 89.1033 9.54 87.85 9.54C87.7433 9.54 87.6367 9.54 87.53 9.54C87.45 9.54 87.3567 9.54 87.25 9.54V10.9C87.25 12.5267 86.9167 13.6867 86.25 14.38C85.5833 15.0467 84.8233 15.38 83.97 15.38C82.3433 15.38 81.33 14.66 80.93 13.22C80.93 11.4867 81.7433 10.0867 83.37 9.02C85.0233 7.92667 87.4633 7.38 90.69 7.38C93.4633 7.38 95.41 7.99333 96.53 9.22C97.6767 10.42 98.25 12.3933 98.25 15.14V24.3C98.25 24.7533 98.4767 24.98 98.93 24.98C99.09 24.98 99.25 24.9267 99.41 24.82C99.57 24.6867 99.77 24.4467 100.01 24.1L101.17 24.74C100.69 25.9667 100.023 26.8467 99.17 27.38C98.3433 27.8867 97.2233 28.14 95.81 28.14ZM87.13 21.74C87.13 22.7267 87.33 23.46 87.73 23.94C88.13 24.42 88.6233 24.66 89.21 24.66C89.3967 24.66 89.5967 24.62 89.81 24.54C90.05 24.4333 90.41 24.22 90.89 23.9V17.34C90.49 17.4467 90.1033 17.5933 89.73 17.78C89.17 18.0467 88.5967 18.5 88.01 19.14C87.4233 19.78 87.13 20.6467 87.13 21.74Z" fill="black"/>
</g>
<defs>
<clipPath id="clip0_1_2">
<rect width="104" height="38" fill="white"/>
</clipPath>
</defs>
</svg>
